Coordinates
version=1
nRows=9
nColumns=24
inDegrees=yes

Units are S.I. units (second, meters, Newtons, ...)
Angles are in degrees.

endheader
time	pelvis_tilt	pelvis_list	pelvis_rotation	pelvis_tx	pelvis_ty	pelvis_tz	hip_flexion_r	hip_adduction_r	hip_rotation_r	knee_angle_r	ankle_angle_r	subtalar_angle_r	mtp_angle_r	hip_flexion_l	hip_adduction_l	hip_rotation_l	knee_angle_l	ankle_angle_l	subtalar_angle_l	mtp_angle_l	lumbar_extension	lumbar_bending	lumbar_rotation
      4.17000000	     -9.64719814	     -1.65984695	     -4.90117436	     -1.35168589	     -0.00366910	     -0.66791692	      5.80287397	      6.04972621	     -3.91817578	     -8.06370947	      4.99123860	     -8.10913623	      3.83650525	     33.65724829	     -7.55353221	    -16.61676038	    -52.84936454	     -2.81431401	    -14.53938102	      2.85643611	      7.05350786	      4.85718550	      0.52999261
      4.17500000	     -9.65840208	     -1.56052878	     -5.03430974	     -1.34680906	     -0.00390522	     -0.66750944	      5.40968991	      5.93998356	     -3.98137827	     -7.89256772	      5.19033780	     -7.79030027	      4.26002023	     33.86430001	     -7.44753252	    -17.07974158	    -51.41227052	     -2.20665686	    -14.41901294	      1.30980061	      6.97541505	      4.73638402	      0.80846269
      4.18000000	     -9.86718613	     -1.50421046	     -5.18488550	     -1.34198877	     -0.00444432	     -0.66703114	      5.24728585	      5.91233820	     -3.88897016	     -7.76579083	      5.38465327	     -7.67713415	      4.35102793	     34.27583018	     -7.42149230	    -17.50367426	    -49.90015809	     -1.90891486	    -14.36868877	      1.10018447	      7.10162456	      4.67395325	      1.09078805
      4.18500000	     -9.90067703	     -1.41889459	     -5.27759091	     -1.33708730	     -0.00477777	     -0.66670281	      4.88888340	      5.81169726	     -3.99090682	     -7.62094887	      5.58498171	     -7.37943294	      4.68945779	     34.45245464	     -7.29592625	    -17.93964473	    -48.31110564	     -1.38541806	    -14.14229751	     -0.07132572	      7.04974741	      4.56039666	      1.28658704
      4.19000000	    -10.11662631	     -1.38120458	     -5.40708738	     -1.33223474	     -0.00539767	     -0.66629701	      4.73934725	      5.79762616	     -3.91642716	     -7.51159352	      5.78458732	     -7.26507583	      4.77325613	     34.81307534	     -7.26403032	    -18.37510856	    -46.66163271	     -1.11440140	    -13.98325626	     -0.23612159	      7.18525701	      4.51460996	      1.53578664
      4.19500000	    -10.23643253	     -1.33235376	     -5.55130914	     -1.32736641	     -0.00589652	     -0.66589792	      4.49305913	      5.75572037	     -3.92729809	     -7.40994935	      5.97577236	     -7.02980095	      4.90402378	     35.01796404	     -7.21807040	    -18.87750810	    -44.92835861	     -0.82010754	    -13.70709473	     -0.55508415	      7.21174520	      4.45120231	      1.77781455
      4.20000000	    -10.38096695	     -1.29690520	     -5.64108061	     -1.32243679	     -0.00651084	     -0.66559553	      4.25670077	      5.72393480	     -3.94781113	     -7.28984850	      6.21099479	     -6.83597624	      5.03130167	     35.23104365	     -7.13216568	    -19.30491497	    -43.14129285	     -0.51183619	    -13.36347620	     -0.78135457	      7.27714359	      4.39466130	      1.97706875
      4.20500000	    -10.51681225	     -1.26911972	     -5.73348032	     -1.31750761	     -0.00712125	     -0.66530917	      4.01771326	      5.69694240	     -4.00604041	     -7.17971249	      6.42055352	     -6.61575396	      5.16712883	     35.40009690	     -7.05048580	    -19.76433851	    -41.29339829	     -0.22818673	    -12.91067307	     -0.95653820	      7.32570216	      4.34924784	      2.15983369
      4.21000000	    -10.64621914	     -1.25407524	     -5.81342598	     -1.31256207	     -0.00775489	     -0.66504687	      3.77568697	      5.67981323	     -4.08571352	     -7.08339319	      6.62671564	     -6.38219302	      5.31586448	     35.52998035	     -6.96485122	    -20.23382194	    -39.39047344	      0.04700064	    -12.35605823	     -1.04247233	      7.37103780	      4.30819932	      2.33158639
